<?xml version="1.0" encoding="UTF-8" standalone="no"?>
<svg
    width="100%"
    height="100%"
    viewBox="0 0 3009.0012 1168.8253"
    xmlns="http://www.w3.org/2000/svg"
>
    <defs>
        <style type="text/css">
            @-webkit-keyframes animate-svg-stroke-1 {
              0% {
                stroke-dashoffset: 80.64440155029297px;
                stroke-dasharray: 80.64440155029297px;
                opacity: 0;
              }
              1% {
                opacity: 1;
              }
              100% {
                stroke-dashoffset: 161.28880310058594px;
                stroke-dasharray: 80.64440155029297px;
                opacity: 1;
              }
            }
            @keyframes animate-svg-stroke-1 {
              0% {
                stroke-dashoffset: 80.64440155029297px;
                stroke-dasharray: 80.64440155029297px;
                opacity: 0;
              }
              1% {
                opacity: 1;
              }
              100% {
                stroke-dashoffset: 161.28880310058594px;
                stroke-dasharray: 80.64440155029297px;
                opacity: 1;
              }
            }
            .svg-elem-1 {
              -webkit-animation: animate-svg-stroke-1 0.05s ease-out 0.90s both;
                      animation: animate-svg-stroke-1 0.05s ease-out 0.90s both;
            }

            @-webkit-keyframes animate-svg-stroke-2 {
              0% {
                stroke-dashoffset: 1785.072998046875px;
                stroke-dasharray: 1785.072998046875px;
                opacity: 0;
              }
              1% {
                opacity: 1;
              }
              100% {
                stroke-dashoffset: 3570.14599609375px;
                stroke-dasharray: 1785.072998046875px;
                opacity: 1;
              }
            }
            @keyframes animate-svg-stroke-2 {
              0% {
                stroke-dashoffset: 1785.072998046875px;
                stroke-dasharray: 1785.072998046875px;
                opacity: 0;
              }
              1% {
                opacity: 1;
              }
              100% {
                stroke-dashoffset: 3570.14599609375px;
                stroke-dasharray: 1785.072998046875px;
                opacity: 1;
              }
            }
            .svg-elem-2 {
              -webkit-animation: animate-svg-stroke-2 1.8s ease-out 0.67s both;
                      animation: animate-svg-stroke-2 1.8s ease-out 0.67s both;
            }

            @-webkit-keyframes animate-svg-stroke-3 {
              0% {
                stroke-dashoffset: 1580.836181640625px;
                stroke-dasharray: 1580.836181640625px;
                opacity: 0;
              }
              1% {
                opacity: 1;
              }
              100% {
                stroke-dashoffset: 3161.67236328125px;
                stroke-dasharray: 1580.836181640625px;
                opacity: 1;
              }
            }
            @keyframes animate-svg-stroke-3 {
              0% {
                stroke-dashoffset: 1580.836181640625px;
                stroke-dasharray: 1580.836181640625px;
                opacity: 0;
              }
              1% {
                opacity: 1;
              }
              100% {
                stroke-dashoffset: 3161.67236328125px;
                stroke-dasharray: 1580.836181640625px;
                opacity: 1;
              }
            }
            .svg-elem-3 {
              -webkit-animation: animate-svg-stroke-3 1.8s ease-out 0.2s both;
                      animation: animate-svg-stroke-3 1.8s ease-out 0.2s both;
            }

            @-webkit-keyframes animate-svg-stroke-4 {
              0% {
                stroke-dashoffset: 1593.7413330078125px;
                stroke-dasharray: 1593.7413330078125px;
                opacity: 0;
              }
              1% {
                opacity: 1;
              }
              100% {
                stroke-dashoffset: 3187.482666015625px;
                stroke-dasharray: 1593.7413330078125px;
                opacity: 1;
              }
            }
            @keyframes animate-svg-stroke-4 {
              0% {
                stroke-dashoffset: 1593.7413330078125px;
                stroke-dasharray: 1593.7413330078125px;
                opacity: 0;
              }
              1% {
                opacity: 1;
              }
              100% {
                stroke-dashoffset: 3187.482666015625px;
                stroke-dasharray: 1593.7413330078125px;
                opacity: 1;
              }
            }
            .svg-elem-4 {
              -webkit-animation: animate-svg-stroke-4 1.8s ease-out 0.65s both;
                      animation: animate-svg-stroke-4 1.8s ease-out 0.65s both;
            }

            @-webkit-keyframes animate-svg-stroke-5 {
              0% {
                stroke-dashoffset: 1873.56201171875px;
                stroke-dasharray: 1873.56201171875px;
                opacity: 0;
              }
              1% {
                opacity: 1;
              }
              100% {
                stroke-dashoffset: 3747.1240234375px;
                stroke-dasharray: 1873.56201171875px;
                opacity: 1;
              }
            }
            @keyframes animate-svg-stroke-5 {
              0% {
                stroke-dashoffset: 1873.56201171875px;
                stroke-dasharray: 1873.56201171875px;
                opacity: 0;
              }
              1% {
                opacity: 1;
              }
              100% {
                stroke-dashoffset: 3747.1240234375px;
                stroke-dasharray: 1873.56201171875px;
                opacity: 1;
              }
            }
            .svg-elem-5 {
              -webkit-animation: animate-svg-stroke-5 1.8s ease-out 0.75s both;
                      animation: animate-svg-stroke-5 1.8s ease-out 0.75s both;
            }

            @-webkit-keyframes animate-svg-stroke-6 {
              0% {
                stroke-dashoffset: 1596.94287109375px;
                stroke-dasharray: 1596.94287109375px;
                opacity: 0;
              }
              1% {
                opacity: 1;
              }
              100% {
                stroke-dashoffset: 3193.8857421875px;
                stroke-dasharray: 1596.94287109375px;
                opacity: 1;
              }
            }
            @keyframes animate-svg-stroke-6 {
              0% {
                stroke-dashoffset: 1596.94287109375px;
                stroke-dasharray: 1596.94287109375px;
                opacity: 0;
              }
              1% {
                opacity: 1;
              }
              100% {
                stroke-dashoffset: 3193.8857421875px;
                stroke-dasharray: 1596.94287109375px;
                opacity: 1;
              }
            }
            .svg-elem-6 {
              -webkit-animation: animate-svg-stroke-6 1.8s ease-out 0.6s both;
                      animation: animate-svg-stroke-6 1.8s ease-out 0.6s both;
            }

            @-webkit-keyframes animate-svg-stroke-7 {
              0% {
                stroke-dashoffset: 1323.5792236328125px;
                stroke-dasharray: 1323.5792236328125px;
                opacity: 0;
              }
              1% {
                opacity: 1;
              }
              100% {
                stroke-dashoffset: 2647.158447265625px;
                stroke-dasharray: 1323.5792236328125px;
                opacity: 1;
              }
            }
            @keyframes animate-svg-stroke-7 {
              0% {
                stroke-dashoffset: 1323.5792236328125px;
                stroke-dasharray: 1323.5792236328125px;
                opacity: 0;
              }
              1% {
                opacity: 1;
              }
              100% {
                stroke-dashoffset: 2647.158447265625px;
                stroke-dasharray: 1323.5792236328125px;
                opacity: 1;
              }
            }
            .svg-elem-7 {
              -webkit-animation: animate-svg-stroke-7 1.8s ease-out 0.75s both;
                      animation: animate-svg-stroke-7 1.8s ease-out 0.75s both;
            }

            @-webkit-keyframes animate-svg-stroke-8 {
              0% {
                stroke-dashoffset: 1627.311279296875px;
                stroke-dasharray: 1627.311279296875px;
                opacity: 0;
              }
              1% {
                opacity: 1;
              }
              100% {
                stroke-dashoffset: 3254.62255859375px;
                stroke-dasharray: 1627.311279296875px;
                opacity: 1;
              }
            }
            @keyframes animate-svg-stroke-8 {
              0% {
                stroke-dashoffset: 1627.311279296875px;
                stroke-dasharray: 1627.311279296875px;
                opacity: 0;
              }
              1% {
                opacity: 1;
              }
              100% {
                stroke-dashoffset: 3254.62255859375px;
                stroke-dasharray: 1627.311279296875px;
                opacity: 1;
              }
            }
            .svg-elem-8 {
              -webkit-animation: animate-svg-stroke-8 1.8s ease-out 0.7s both;
                      animation: animate-svg-stroke-8 1.8s ease-out 0.7s both;
            }

            @-webkit-keyframes animate-svg-stroke-9 {
              0% {
                stroke-dashoffset: 1784.1741943359375px;
                stroke-dasharray: 1784.1741943359375px;
                opacity: 0;
              }
              1% {
                opacity: 1;
              }
              100% {
                stroke-dashoffset: 3568.348388671875px;
                stroke-dasharray: 1784.1741943359375px;
                opacity: 1;
              }
            }
            @keyframes animate-svg-stroke-9 {
              0% {
                stroke-dashoffset: 1784.1741943359375px;
                stroke-dasharray: 1784.1741943359375px;
                opacity: 0;
              }
              1% {
                opacity: 1;
              }
              100% {
                stroke-dashoffset: 3568.348388671875px;
                stroke-dasharray: 1784.1741943359375px;
                opacity: 1;
              }
            }
            .svg-elem-9 {
              -webkit-animation: animate-svg-stroke-9 1.8s ease-out 1s both;
                      animation: animate-svg-stroke-9 1.8s ease-out 1s both;
            }

            @-webkit-keyframes animate-svg-stroke-10 {
              0% {
                stroke-dashoffset: 4478.69775390625px;
                stroke-dasharray: 4478.69775390625px;
                opacity: 0;
              }
              1% {
                opacity: 1;
              }
              100% {
                stroke-dashoffset: 8957.3955078125px;
                stroke-dasharray: 4478.69775390625px;
                opacity: 1;
              }
            }
            @keyframes animate-svg-stroke-10 {
              0% {
                stroke-dashoffset: 4478.69775390625px;
                stroke-dasharray: 4478.69775390625px;
                opacity: 0;
              }
              1% {
                opacity: 1;
              }
              100% {
                stroke-dashoffset: 8957.3955078125px;
                stroke-dasharray: 4478.69775390625px;
                opacity: 1;
              }
            }
            .svg-elem-10 {
              -webkit-animation: animate-svg-stroke-10 1.8s ease-out 1s both;
                      animation: animate-svg-stroke-10 1.8s ease-out 1s both;
            }

            @-webkit-keyframes animate-svg-stroke-11 {
              0% {
                stroke-dashoffset: 4781.244140625px;
                stroke-dasharray: 4781.244140625px;
                opacity: 0;
              }
              1% {
                opacity: 1;
              }
              100% {
                stroke-dashoffset: 9562.48828125px;
                stroke-dasharray: 4781.244140625px;
                opacity: 1;
              }
            }
            @keyframes animate-svg-stroke-11 {
              0% {
                stroke-dashoffset: 4781.244140625px;
                stroke-dasharray: 4781.244140625px;
                opacity: 0;
              }
              1% {
                opacity: 1;
              }
              100% {
                stroke-dashoffset: 9562.48828125px;
                stroke-dasharray: 4781.244140625px;
                opacity: 1;
              }
            }
            .svg-elem-11 {
              -webkit-animation: animate-svg-stroke-11 1.8s ease-out 1s both;
                      animation: animate-svg-stroke-11 1.8s ease-out 1s both;
            }

            @-webkit-keyframes animate-svg-stroke-12 {
              0% {
                stroke-dashoffset: 1090.7457275390625px;
                stroke-dasharray: 1090.7457275390625px;
                opacity: 0;
              }
              1% {
                opacity: 1;
              }
              100% {
                stroke-dashoffset: 2181.491455078125px;
                stroke-dasharray: 1090.7457275390625px;
                opacity: 1;
              }
            }
            @keyframes animate-svg-stroke-12 {
              0% {
                stroke-dashoffset: 1090.7457275390625px;
                stroke-dasharray: 1090.7457275390625px;
                opacity: 0;
              }
              1% {
                opacity: 1;
              }
              100% {
                stroke-dashoffset: 2181.491455078125px;
                stroke-dasharray: 1090.7457275390625px;
                opacity: 1;
              }
            }
            .svg-elem-12 {
              -webkit-animation: animate-svg-stroke-12 1.8s ease-out 1s both;
                      animation: animate-svg-stroke-12 1.8s ease-out 1s both;
            }

            @-webkit-keyframes animate-svg-stroke-13 {
              0% {
                stroke-dashoffset: 3463.11572265625px;
                stroke-dasharray: 3463.11572265625px;
                opacity: 0;
              }
              1% {
                opacity: 1;
              }
              100% {
                stroke-dashoffset: 6926.2314453125px;
                stroke-dasharray: 3463.11572265625px;
                opacity: 1;
              }
            }
            @keyframes animate-svg-stroke-13 {
              0% {
                stroke-dashoffset: 3463.11572265625px;
                stroke-dasharray: 3463.11572265625px;
                opacity: 0;
              }
              1% {
                opacity: 1;
              }
              100% {
                stroke-dashoffset: 6926.2314453125px;
                stroke-dasharray: 3463.11572265625px;
                opacity: 1;
              }
            }
            .svg-elem-13 {
              -webkit-animation: animate-svg-stroke-13 1.8s ease-out 1s both;
                      animation: animate-svg-stroke-13 1.8s ease-out 1s both;
            }
        </style>

        <mask id="csus-logo-mask">
            <path class="svg-elem-1"
                d="m 2284.6761,971.69206 c -26.1985,0.13727 -47.0561,-0.47312 -73.2546,-2.96712"
                stroke="#e05aaa" stroke-width="76.505" fill="none" stroke-linecap="butt"
                stroke-linejoin="miter" />

            <path class="svg-elem-2"
                d="m 2036.1617,135.74411 12.495,678.97856 -90.0371,104.35914 -214.2277,-0.11332 -79.4055,-106.62481 2.6583,-430.14592 -97.7582,-90.20052 -39.5141,-39.41023"
                stroke="#e05aaa" stroke-width="76.505" fill="none" stroke-linecap="butt"
                stroke-linejoin="miter" />

            <path class="svg-elem-3"
                d="M 2820.3264,279.97223 H 2462.7861 L 2356.13,386.62832 v 106.65609 l 52.722,52.72205 107.2621,6.06001 158.4691,151.19712 v 56.66104 l -102.8686,102.86859 -360.6226,4.04363"
                stroke="#e05aaa" stroke-width="80" fill="none" stroke-linecap="butt"
                stroke-linejoin="miter" />

            <path class="svg-elem-4"
                d="M 1493.3487,385.41632 H 1186.549 l -53.9341,53.93405 52.7221,52.72204 h 107.8681 l 159.9841,159.98413 V 814.46468 L 1295.0231,972.63081 H 881.12474"
                stroke="#e05aaa" stroke-width="80" fill="none" stroke-linecap="butt"
                stroke-linejoin="miter" />

            <path class="svg-elem-5"
                d="m 2142.9212,133.76864 v 680.64632 l -160.6536,160.65351 h -265.57 L 1555.7162,814.08709 V 343.6018"
                stroke="#e05aaa" stroke-width="80" fill="none" stroke-linecap="butt"
                stroke-linejoin="miter" />

            <path class="svg-elem-6"
                d="m 1492.7798,278.70043 -355.7868,-0.7445 -109.4315,109.43147 v 108.33715 l 39.3234,57.93594 158.7924,26.96318 127.7164,121.10562 -6.5659,56.63079 -107.6532,107.6532 -359.71186,-0.42582"
                stroke="#e05aaa" stroke-width="128.8" fill="none" stroke-linecap="butt"
                stroke-linejoin="miter" />

            <path class="svg-elem-7"
                d="M 849.9295,865.25889 H 439.86832 L 330.2206,755.61117 V 488.83721 l 270.96902,-250.87974 81.64446,-88.49288"
                stroke="#e05aaa" stroke-width="90" fill="none" stroke-linecap="butt"
                stroke-linejoin="miter" />

            <path class="svg-elem-8"
                d="M 2833.0549,173.15291 2411.6587,171.22217 2249.9489,332.932 v 214.30749 l 105.4751,105.4751 h 161.43 l 50.7791,50.77912 -53.5768,53.57688 -302.7163,3.3573"
                stroke="#e05aaa" stroke-width="77" fill="none" stroke-linecap="butt"
                stroke-linejoin="miter" />

            <path class="svg-elem-9"
                d="m 3013.2287,600.26844 -80.5806,-0.80402 -59.7476,-0.95232 -83.2983,-88.53816 -9.3046,-122.82851 -256.7928,-4.40001 -26.1503,32.09356 24.3673,45.76304 99.6892,25.81026 170.0804,236.10002 -10.941,92.90186 -155.2674,155.26746 -343.4066,-7.05317"
                stroke="#e05aaa" stroke-width="139.2" fill="none" stroke-linecap="butt"
                stroke-linejoin="miter" />

            <path class="svg-elem-10"
                d="M -3.0367844,600 H 79.175313 L 217.49306,599.37757 M 67,687.69296 l -0.858253,393.22624 52.097953,52.098 748.24579,-15.3058 m -314.5707,-995.25265 -329.9583,366.52585 -3.77312,111.02202 2.14918,195.27789 167.97935,177.91488 252.64875,-2.15066 154.60595,9.63951 c 0,0 69.61284,103.58226 70.58725,132.50806 l 130.9834,3.1458 90.02155,0.2866 1088.5892,10.3337 14.8686,-19.9544 25.1462,-76.7236 -0.044,-22.8207"
                stroke="#e05aaa" stroke-width="138.4" fill="none" stroke-linecap="butt"
                stroke-linejoin="miter" />

            <path class="svg-elem-11"
                d="M 67.277864,514.37598 66.112954,69.418716 121.18502,14.346647 862.69437,10.095685 1398.8508,14.9984 l 51.9944,51.994454 -2.4242,98.291706 -371.0359,9.69677 -157.98318,157.98315 V 547.4416 l 104.82878,104.82874 149.4905,3.60494 52.2016,57.96956 -41.4115,45.01644 -304.1843,-0.51912 m -30.41766,1.88633 H 494.1377 l -53.3039,-53.3039 9.10508,-204.08075 324.46924,-292.08722 9.92838,-184.363609"
                stroke="#e05aaa" stroke-width="137.4" fill="none" stroke-linecap="butt"
                stroke-linejoin="miter" />

            <path class="svg-elem-12"
                d="m 2942.0876,688.30563 -0.6583,390.77267 -51.6348,51.6348 h -624.9501"
                stroke="#e05aaa" stroke-width="137.5" fill="none" stroke-linecap="butt"
                stroke-linejoin="miter" />

            <path class="svg-elem-13"
                d="m 2941.9692,510.97432 1.0393,-443.575965 -53.1732,-53.173277 H 1610.5511 l -34.068,44.716844 8.519,100.859718 184.6607,168.68733 3.4239,403.22421 55.4613,79.87584 68.1292,0.36604 25.4157,-36.2429 1.4171,-642.63209"
                stroke="#e05aaa" stroke-width="137.6" fill="none" stroke-linecap="butt"
                stroke-linejoin="miter" />
        </mask>
    </defs>

    <g mask="url(#csus-logo-mask)" fill="#e05aaa" style="fill-opacity: 1;">
        <path id="CS-1"
            d="M 114.20115,1.4338293 C 110.05774,3.6341961 55.235753,59.11823 54.046852,62.314689 53.334168,64.230797 52.999977,114.28831 52.999977,219.06469 v 153.93555 l -21.75,0.004 c -20.051344,0.003 -22.0088934,0.16095 -25.0605472,2.02149 -6.25173117,3.81158 -6.189453147371,3.16699 -6.189453147371,64.47461 0,61.30762 -0.06227802263,60.66302 6.189453147371,64.4746 3.217474,1.96169 4.9043752,2.01749 60.1933592,2.02149 56.013021,0.004 56.932981,-0.0292 60.273441,-2.09375 6.55293,-4.04993 6.34375,-1.92561 6.34375,-64.40234 0,-62.47673 0.20918,-60.35437 -6.34375,-64.4043 -3.17065,-1.95956 -4.80479,-2.0957 -25.02344,-2.0957 H 79.999977 V 222.75805 72.515861 L 102.74216,49.758048 125.48435,27.000236 h 310.25781 310.25782 v 55.40039 55.402344 l -3.60157,2.125 c -12.57427,7.419 -18.89464,17.1809 -19.95117,30.81641 -0.43772,5.64925 -0.17692,9.11351 0.96094,12.75586 l 1.5625,5 -148.38281,148.5 c -81.60987,81.675 -148.87753,149.48225 -149.48438,150.68359 -1.51084,2.99107 -1.56573,218.94479 -0.0566,223.00195 1.21893,3.27706 55.00179,57.64646 59.45313,60.10156 2.74307,1.51292 15.36005,1.6865 147.32031,2.03516 132.93195,0.35122 144.36683,0.51131 144.9082,2.0293 1.29826,3.6403 7.72074,11.36157 11.76563,14.14453 2.36117,1.62453 6.47951,3.87169 9.15039,4.99414 4.02372,1.691 6.35919,1.96459 13.62695,1.58984 15.00539,-0.77374 25.85516,-7.61607 31.84375,-20.08007 2.61311,-5.43865 2.88281,-6.98237 2.88281,-16.5 0,-9.51763 -0.2697,-11.06135 -2.88281,-16.5 -7.76619,-16.1637 -26.58686,-24.12615 -43.71875,-18.49415 -9.31736,3.06302 -15.40823,7.71137 -20.3457,15.5293 l -4.08203,6.46485 H 637.74216 498.5156 L 475.75779,723.25805 452.99998,700.51586 V 599.51 498.50219 L 598.6406,352.85961 744.28123,207.21703 l 4.44531,1.51563 c 6.69159,2.28005 18.25403,1.33541 25.79297,-2.10547 26.37116,-12.03616 28.77076,-48.48228 4.23633,-64.35352 l -6.75586,-4.37109 V 82.451407 27.000236 h 310.24222 310.2422 L 1415.2422,49.742423 1438,72.484611 v 33.136719 33.13672 l -3.25,1.32422 c -4.6039,1.87618 -14.1261,11.20667 -16.2559,15.92968 l -1.7969,3.98829 h -170.8984 c -146.5867,0 -171.2815,0.20408 -173.5977,1.43554 -1.4851,0.78963 -39.6011,38.36534 -84.70112,83.50196 l -82,82.0664 v 112.49414 112.49414 l 55,55.07032 c 30.25,30.28878 56.67032,55.9408 58.71092,57.0039 3.575,1.86251 6.5609,1.9336 82.0078,1.9336 h 78.3008 l 19.9805,20 19.9804,20 -19.9804,20 -19.9805,20 H 1066.3808 953.24216 l -1.2539,-3.02735 c -5.28037,-12.74794 -21.47272,-21.92819 -36.28516,-20.57226 -13.31685,1.21903 -24.09153,8.53925 -30.14062,20.47656 -2.29106,4.5212 -2.5625,6.22902 -2.5625,16.12305 0,9.91668 0.2699,11.60847 2.60156,16.2832 3.499,7.01513 9.6858,13.27082 16.61914,16.80273 5.27674,2.68801 6.55934,2.9133 16.5,2.9043 9.21374,-0.008 11.51372,-0.35286 15.84375,-2.36914 6.815,-3.1734 12.02731,-7.92962 15.57227,-14.21094 l 2.9414,-5.20898 117.7109,-0.35157 117.711,-0.3496 3.5,-2.20508 c 6.2177,-3.9154 56.773,-55.41909 58.5,-59.59766 3.3288,-8.05461 3.1213,-8.34843 -28.3555,-40.00781 -16.9197,-17.01789 -30.0257,-29.39924 -32.0176,-30.25 -2.8391,-1.21259 -15.7206,-1.43945 -81.4961,-1.43945 h -78.123 l -49.25392,-49.2461 -49.2539,-49.24609 V 439.50609 338.50414 l 75.74802,-75.75195 75.7481,-75.75195 h 166.5175 166.5196 l 3.2637,5.45898 c 3.5228,5.88977 9.214,11.04528 15.914,14.41992 3.5332,1.77962 5.9905,2.1211 15.2832,2.1211 9.9238,0 11.6138,-0.26963 16.2891,-2.60157 7.0152,-3.499 13.2708,-9.68775 16.8027,-16.62109 2.6855,-5.2718 2.9148,-6.56863 2.9141,-16.5 -7e-4,-9.78003 -0.2665,-11.33755 -2.8594,-16.81836 -2.9886,-6.31721 -9.8753,-13.36548 -15.8906,-16.26367 l -3.25,-1.56641 v -36.07031 c 0,-21.057708 -0.4161,-37.522967 -1,-39.558594 -0.7533,-2.626863 -7.9683,-10.474339 -29.25,-31.810547 -15.5374,-15.577315 -29.4661,-28.9671475 -30.9512,-29.7558597 -4.0805,-2.1669238 -1285.51722,-2.1669238 -1289.59765,0 z M 1452.2636,163.00024 c 7.9759,0 11.8826,11.10629 6.0489,17.19531 -5.3661,5.601 -15.4821,2.75249 -16.8906,-4.75586 -1.3141,-7.00464 3.4237,-12.43945 10.8417,-12.43945 z m -693.16987,0.5 c 4.26926,0 5.26144,0.4034 7.38281,3 3.55397,4.35012 3.43411,10.25295 -0.28125,13.8125 -2.1961,2.104 -3.78258,2.6875 -7.3125,2.6875 -6.26954,0 -9.88281,-3.70396 -9.88281,-10.13086 0,-6.33922 3.26465,-9.36914 10.09375,-9.36914 z m 159.16406,585.49804 c 5.35353,-0.062 10.74219,4.26656 10.74219,10.09766 0,2.85021 -2.68222,7.66382 -4.94532,8.875 -5.57242,2.98227 -14.21542,-0.79632 -15.3457,-6.70899 -0.67214,-3.51607 1.40677,-8.52857 4.4082,-10.63086 1.57583,-1.10375 3.35612,-1.61214 5.14063,-1.63281 z m -104.89844,0.002 c 7.88168,0 11.74273,11.15227 5.95313,17.19531 -2.09619,2.18795 -3.58055,2.79714 -6.75,2.77344 -4.98635,-0.0373 -7.11588,-1.2044 -9.0625,-4.96875 -1.8772,-3.63007 -1.89696,-6.33067 -0.0742,-9.85547 1.67195,-3.23319 5.36231,-5.14453 9.93359,-5.14453 z" />
        <path id="CS-2_S2-3"
            d="m 545.99998,136.61938 c -7.66852,-0.0819 -9.21056,0.24181 -15.76563,3.30078 -8.59277,4.00989 -14.12043,9.53225 -17.82617,17.8125 -3.35131,7.4883 -4.22008,18.67416 -2.00195,25.76758 l 1.56445,5 -148.38281,148.5 c -81.60987,81.675 -148.87756,149.48225 -149.48438,150.68359 -0.75884,1.50227 -1.10351,17.19177 -1.10351,50.25 v 48.06641 h -40 -40 v -22.70899 -22.70703 c -1.63492,-4.35889 -3.49313,-5.64486 -7.40625,-7.58398 H 67.748024 c -63.8366932,0 -61.8314873,-0.19182 -65.789063,6.29882 -1.87489368,3.07493 -1.95148777,5.425 -1.9550781,59.49024 -0.003543075,53.35368 0.09565574,56.48579 1.8984375,60.01953 3.7544201,7.35927 2.2514927,7.19141 64.6640626,7.19141 61.235177,0 60.597247,0.0617 64.408207,-6.18946 1.86054,-3.05166 2.01848,-5.0092 2.02148,-25.06054 l 0.004,-21.75 h 40 40 v 101.04882 c 0,85.88987 0.21523,101.45503 1.43554,103.75 0.78963,1.48519 38.25184,39.48768 83.25,84.44922 64.06003,64.0079 82.57373,81.96565 85.3086,82.75 2.27871,0.65352 71.45354,1.00377 199,1.00977 l 195.50586,0.01 3.93359,6.10547 c 2.88715,4.48075 5.74826,7.31256 10.75,10.63868 l 6.81641,4.5312 v 55.3535 55.3535 H 462.25779 125.5156 L 102.75779,1095.258 79.999977,1072.5159 V 949.35375 826.19359 l 22.250003,-0.35351 c 19.82258,-0.31364 22.55526,-0.55777 25.05078,-2.24414 5.83814,-3.94518 5.70036,-2.36749 5.69336,-64.79688 -0.007,-64.8708 0.46248,-61.10581 -8.13867,-64.99218 -4.19468,-1.89534 -6.41318,-1.95744 -59.900395,-1.63868 -61.7055188,0.36775 -58.663394,0.0245 -63.0000002,7.13672 -1.87041265,3.06757 -1.94758368,5.45433 -1.9511719,59.57617 -0.003682331,55.54143 0.0282025,56.43281 2.0976563,59.78125 4.0656854,6.57842 7.204378,7.3379 30.3593748,7.3379 h 20.539063 v 126.95312 c 0,94.88624 0.296817,127.65954 1.173828,129.75004 0.645367,1.5384 14.482867,16.2164 30.75,32.6191 l 29.576175,29.8242 1044.24412,-0.3242 1044.2442,-0.3223 30.0058,-29.9941 L 2263,1084.512 v -38.6817 -38.6836 l 5.3965,-3.0879 c 6.0141,-3.4409 11.8303,-9.36981 14.3261,-14.60349 l 1.6485,-3.45507 h 169.0703 c 109.919,0 170.2935,-0.3507 172.5644,-1.00196 2.7348,-0.78435 21.2485,-18.7421 85.3086,-82.75 44.9981,-44.96154 82.4604,-82.96403 83.25,-84.44922 1.2142,-2.28367 1.4356,-15.42648 1.4356,-85.18359 0,-54.92389 -0.3487,-83.42629 -1.0449,-85.30078 -0.586,-1.57794 -36.2932,-38.11226 -81.25,-83.13281 -58.1651,-58.24779 -81.5012,-80.98654 -84.9219,-82.75 l -4.7168,-2.43164 h -51.2735 -51.2753 L 2501.7597,459.26 2482,439.51781 2501.7402,419.76 l 19.7402,-19.75976 h 113.1426 113.1426 l 4.1875,6.42773 c 3.0919,4.74564 5.8716,7.52723 10.6172,10.61914 l 6.4297,4.1875 v 63.41406 c 0,52.14721 0.2495,63.98669 1.4004,66.63282 2.1028,4.83462 57.284,59.20816 61.498,60.59765 2.0614,0.67969 11.4089,1.1211 23.75,1.1211 H 2876 v 21.75 c 0,20.05134 0.161,22.00888 2.0215,25.06054 3.8113,6.25112 3.173,6.18946 64.4082,6.18946 62.4125,0 60.9096,0.16786 64.664,-7.19141 1.802,-3.533 1.9024,-6.66572 1.9024,-59.81836 0,-61.8978 0.1783,-60.08185 -6.2989,-64.03125 -3.0779,-1.87668 -5.4387,-1.95108 -61.1582,-1.95508 l -57.9589,-0.004 -3.7911,3.70312 -3.7929,3.70313 v 22.79687 22.79688 h -17.2422 -17.2422 L 2818.7578,563.25805 2796,540.51586 v -59.73828 -59.73633 l 4.0449,-2.06445 c 9.8225,-5.01107 16.5122,-14.50446 18.8672,-26.77735 2.8522,-14.86382 -5.7812,-32.18597 -19.4375,-39.00195 -17.3093,-8.63921 -39.021,-2.22195 -48.4922,14.33203 l -3.1289,5.47071 h -117.4922 c -83.8123,0 -118.1196,0.31694 -119.6777,1.10546 -3.1118,1.57477 -57.524,55.84339 -59.25,59.09375 -1.8354,3.45622 -1.8354,9.14339 0,12.59961 1.726,3.25036 56.1382,57.52094 59.25,59.09571 1.5121,0.76526 18.2814,1.10547 54.498,1.10547 h 52.3145 l 75.7519,75.74804 75.752,75.7461 v 74.50586 74.5039 l -76.252,76.24805 -76.2519,76.24805 h -165.6367 -165.6368 l -4.0332,-6.4336 c -2.3408,-3.7334 -6.06,-7.92951 -8.8613,-9.99609 -5.666,-4.17992 -15.6212,-7.5733 -22.1836,-7.5625 -6.9935,0.0115 -16.6161,3.35381 -22.5449,7.83008 -20.7219,15.64525 -18.6266,48.27433 3.9297,61.17967 l 5.4707,3.1289 v 32.668 32.6699 l -22.7422,22.7578 -22.7422,22.7578 H 1508.7578 825.99998 v -55.8144 -55.8145 l 3.50976,-1.6738 c 5.58807,-2.6648 12.43361,-9.64196 15.58399,-15.88281 2.6732,-5.29559 2.90698,-6.62438 2.90625,-16.53711 -7.1e-4,-9.77688 -0.26585,-11.33491 -2.84961,-16.77734 -3.43252,-7.23025 -10.20535,-13.75129 -17.75,-17.0879 -4.54844,-2.01153 -7.07635,-2.41276 -15.17969,-2.4121 -8.62552,7e-4 -10.39712,0.32275 -15.7207,2.85742 -6.58181,3.13374 -15.21083,11.5046 -17.41407,16.89258 l -1.32812,3.25 H 585.12693 392.49607 l -76.24805,-76.25196 -76.24804,-76.2539 V 652.49828 498.50219 L 385.6406,352.85961 531.28123,207.21703 l 4.44531,1.51563 c 6.68999,2.27951 18.25348,1.33604 25.79297,-2.10352 20.85484,-9.5141 27.67947,-35.19371 14.50781,-54.58984 -6.87873,-10.12938 -16.90855,-15.27983 -30.02734,-15.41992 z m 0,26.38086 c 8.63706,0 13.37271,11.39418 7.19531,17.3125 -4.0362,3.86692 -10.74246,3.81299 -14.50781,-0.11719 -2.88347,-3.0097 -3.6348,-8.5567 -1.65821,-12.25 1.22792,-2.29439 6.03622,-4.94531 8.97071,-4.94531 z M 2782.7695,376.14477 c 6.6778,0.2201 12.5512,7.4677 8.8086,14.70507 -0.8794,1.70051 -2.4653,3.55479 -3.5234,4.1211 -1.0582,0.5663 -3.6396,1.01806 -5.7383,1.00586 -9.5281,-0.0555 -13.4955,-11.28185 -6.166,-17.44922 2.0784,-1.74886 4.3932,-2.45618 6.6191,-2.38281 z M 813.26365,962.00024 c 7.97589,0 11.88248,11.10629 6.04883,17.19531 -5.3661,5.601 -15.48206,2.75249 -16.89063,-4.75586 -1.31408,-7.00464 3.42373,-12.43945 10.8418,-12.43945 z m 1437.99995,0 c 8.0636,0 12.0024,11.49635 5.9317,17.3125 -4.0362,3.86692 -10.7425,3.81299 -14.5078,-0.11719 -2.8835,-3.0097 -3.6348,-8.5567 -1.6582,-12.25 1.412,-2.63823 6.1861,-4.94531 10.2343,-4.94531 z" />
        <path id="C-3"
            d="m 652.80466,136.29711 c -9.81093,-0.1244 -19.72181,3.60996 -27.08593,11.53711 -8.73633,9.40426 -11.84009,20.45127 -9.25586,32.94727 l 1.58593,7.66796 -147.92187,148.02539 c -81.35653,81.41405 -148.41661,149.00765 -149.02344,150.20899 -0.7885,1.56098 -1.10351,41.41289 -1.10351,139.66016 v 137.47656 l 3.90234,4.83984 c 7.09244,8.79662 107.53956,108.22562 110.41211,109.29297 1.91861,0.7129 57.05315,1.04688 173.12891,1.04688 h 170.31445 l 1.33398,3.25 c 1.63594,3.98491 8.98746,12.01757 13.61719,14.8789 1.88207,1.16318 5.98092,2.91963 9.10742,3.90235 6.85151,2.15357 10.4031,2.32511 17.38477,0.84375 11.80038,-2.50378 21.07164,-9.47129 25.80664,-19.39258 2.73921,-5.73951 2.99219,-7.16344 2.99219,-16.84766 0,-13.08169 -2.11045,-18.56492 -10.13282,-26.32812 -7.85752,-7.60367 -12.61078,-9.30664 -25.97851,-9.30664 -10.09638,0 -11.39178,0.22509 -16.70313,2.90625 -6.24085,3.15038 -13.21804,9.99591 -15.88281,15.58398 l -1.67383,3.50977 H 611.06052 444.49216 L 395.24607,802.74633 345.99998,753.49242 V 625.99828 498.50219 L 491.61521,352.885 637.2324,207.26586 l 4.63281,1.44531 c 6.79975,2.12126 19.12144,1.16524 26.13477,-2.02734 18.95732,-8.62967 26.7077,-32.7761 16.52148,-51.47266 -6.65475,-12.21463 -19.10274,-18.75412 -31.7168,-18.91406 z m -0.30468,26.70313 c 4.00475,0 8.98432,3.80766 9.93554,7.59765 0.89991,3.5855 -1.04759,8.91782 -3.95117,10.82031 -2.71162,1.77672 -9.07803,2.04914 -11.73437,0.50196 -2.90353,-1.69115 -4.99734,-6.7883 -4.30469,-10.48047 0.82245,-4.38399 5.65378,-8.43945 10.05469,-8.43945 z m 158.95703,692.58203 c 5.25732,-0.3636 10.54297,3.51491 10.54297,9.66992 0,4.91995 -1.30247,7.33631 -4.98047,9.23828 -4.65608,2.40775 -7.83958,1.88893 -11.61914,-1.89063 -4.44438,-4.44438 -4.64991,-9.16959 -0.59571,-13.70703 1.87885,-2.1028 4.26266,-3.14527 6.65235,-3.31054 z" />
        <path id="S-2"
            d="m 1448.5019,243.10961 c -3.8914,0.001 -6.1467,0.49505 -9.6543,1.82227 -7.8314,2.96321 -13.8399,7.84583 -18.4394,14.98437 l -3.9082,6.06641 -142.5059,0.008 c -92.1094,0.006 -143.7414,0.36453 -145.998,1.01172 -2.7068,0.77628 -15.8102,13.30442 -58.3086,55.75 -30.1492,30.11178 -55.4626,55.96207 -56.252,57.44726 -1.1984,2.25455 -1.4355,12.04755 -1.4355,59.31641 0,39.35818 0.3369,57.28232 1.1054,58.80078 1.5748,3.11176 55.8454,57.52395 59.0957,59.25 2.2449,1.19209 11.4361,1.4336 54.4961,1.4336 h 51.7989 l 76.2519,76.24804 76.252,76.2461 v 21 20.99804 l -49.2461,49.25391 -49.2461,49.25391 -139.5039,-0.008 -139.50392,-0.01 -3.92383,-6.08985 c -7.20098,-11.17576 -17.78375,-16.89257 -31.27344,-16.89257 -14.01973,0 -27.25129,8.42138 -32.99414,21 -3.68069,8.06184 -4.28407,20.46975 -1.36914,28.17382 4.24744,11.22586 13.99235,20.02627 25.90625,23.39844 5.90289,1.67078 14.87313,0.9613 22.49414,-1.78125 6.99183,-2.51613 15.26507,-9.6858 18.74219,-16.24023 l 2.41406,-4.55078 h 143.81833 c 102.935,0 144.4387,-0.31326 146.002,-1.10352 1.2014,-0.60727 27.2711,-26.14466 57.9336,-56.74805 L 1357,765.50609 v -33 -33.00195 l -83.2481,-83.25195 -83.248,-83.25195 h -52.9942 -52.9941 L 1061.7578,510.25805 1039,487.51586 v -48.00391 -48.0039 l 49.2461,-49.25391 49.2461,-49.2539 h 139.5058 139.5059 l 2.414,4.55078 c 3.363,6.33921 11.9306,13.87492 18.6231,16.3789 7.0515,2.63833 20.4031,2.84761 26.6894,0.41992 25.1017,-9.69402 31.7763,-42.14322 12.5586,-61.05468 -7.0573,-6.94488 -12.9827,-9.44807 -23.7441,-10.03516 -1.7677,-0.0964 -3.2458,-0.15086 -4.543,-0.15039 z m 2.8672,26.89063 c 5.6627,0 9.6309,3.86172 9.6309,9.37109 0,4.80386 -1.3247,7.22867 -4.9805,9.11914 -4.7856,2.47474 -8.2318,1.91792 -11.9629,-1.93164 -3.019,-3.11479 -3.2807,-3.85008 -2.7578,-7.74805 0.7706,-5.74551 4.2737,-8.81054 10.0703,-8.81054 z M 918.81248,855.42016 c 1.02565,0.0408 2.04418,0.32851 3.35156,0.875 4.50641,1.88368 5.99529,3.91977 6.54883,8.95508 0.4092,3.72224 0.0972,4.60101 -2.51172,7.08007 -1.82682,1.73588 -4.48356,3.03303 -6.87305,3.35352 -3.33279,0.44703 -4.3623,0.0874 -7.11328,-2.48242 -2.67349,-2.49741 -3.21484,-3.74251 -3.21484,-7.38086 0,-5.36233 1.93497,-8.31345 6.41797,-9.79297 1.33691,-0.44123 2.36887,-0.64825 3.39453,-0.60742 z" />
        <path id="U-3"
            d="m 2143.7793,137.00024 c -8.1033,-6.6e-4 -10.6312,0.40057 -15.1797,2.4121 -23.7638,10.50947 -29.2761,42.39595 -10.4102,60.2129 2.9848,2.81877 6.8636,5.86754 8.6192,6.77539 l 3.1914,1.65039 v 299.22656 299.22656 l -76.252,76.24805 -76.2519,76.24805 H 1850.5 1723.5058 L 1647.2519,882.75219 1571,806.50414 V 613.82641 421.14672 l 5.4824,-3.13867 c 6.419,-3.67262 11.4866,-9.48129 14.8984,-17.07813 12.4605,-27.74458 -12.738,-57.69579 -42.4199,-50.42187 -12.4042,3.03983 -22.4494,12.40392 -26.5488,24.74609 -2.4072,7.24747 -1.497,19.33035 2.0293,26.92578 2.879,6.20102 12.8448,16.35302 17.1035,17.42188 l 2.4512,0.61523 0.01,196.14063 c 0,124.93129 0.3606,197.41327 0.9844,199.64258 0.7737,2.76529 18.2555,20.77121 83.2754,85.77734 55.8223,55.81059 83.249,82.56277 85.2637,83.16406 4.2581,1.27084 269.0516,1.32568 273.4765,0.0566 2.7348,-0.78435 21.2485,-18.7421 85.3086,-82.75 44.9981,-44.96154 82.4604,-82.96403 83.25,-84.44922 C 2156.8029,815.4696 2157,773.41734 2157,511.62133 V 208.14477 l 5.9492,-3.61328 c 11.2562,-6.83781 16.9873,-17.35446 17.0273,-31.24415 0.017,-5.90395 -0.5582,-9.76757 -2.0468,-13.74609 -2.8515,-7.62138 -10.7523,-16.06992 -18.4239,-19.69922 -5.3145,-2.51424 -7.1227,-2.84109 -15.7265,-2.84179 z m -0.01,26.14453 c 6.6778,0.2201 12.5512,7.4677 8.8086,14.70507 -0.8794,1.70051 -2.4653,3.55479 -3.5234,4.1211 -1.0582,0.5663 -3.6396,1.01806 -5.7383,1.00586 -9.5281,-0.0555 -13.4955,-11.28185 -6.166,-17.44922 2.0784,-1.74886 4.3932,-2.45618 6.6191,-2.38281 z m -584.1621,213 c 1.9957,0.0501 2.9764,0.81184 5.2812,3.21093 3.0393,3.1636 3.332,3.95637 2.8321,7.6836 -0.3101,2.31187 -1.5577,5.22283 -2.8125,6.55859 -1.7532,1.86616 -3.2904,2.40235 -6.8946,2.40235 -6.4087,0 -10.0136,-3.6469 -10.0136,-10.13086 0,-5.76779 3.0032,-8.89708 9.1875,-9.57227 0.9774,-0.10671 1.7547,-0.16906 2.4199,-0.15234 z" />
        <path id="S-3"
            d="m 1450.7969,349.42797 c -5.0598,0.08 -10.2258,1.20237 -15.2227,3.48437 -6.5908,3.00994 -14.3455,10.44419 -17.25,16.53516 l -1.6953,3.55274 h -117.3633 c -100.0037,0 -117.7636,0.21165 -120.0645,1.43359 -1.4851,0.78873 -15.5985,14.40123 -31.3613,30.25 -30.4918,30.65809 -31.2132,31.62168 -28.9219,38.56445 0.7279,2.20546 10.5924,12.77068 30.584,32.75391 l 29.5098,29.49805 53.2441,0.31835 53.2442,0.32032 76.25,76.17773 76.25,76.17774 v 74.00586 74.0039 l -76.252,76.24805 -76.2519,76.24805 h -166.127 -166.12694 l -1.32812,-3.25 c -2.06896,-5.0596 -10.8246,-13.67562 -17.13477,-16.86133 -5.20245,-2.62647 -6.65393,-2.88939 -16,-2.88867 -9.27265,7.1e-4 -10.86646,0.28405 -16.27929,2.88476 -7.33553,3.52451 -13.54535,9.80026 -16.9336,17.11524 -2.22966,4.81368 -2.54764,6.84556 -2.55664,16.2832 -0.009,9.62274 0.26982,11.34468 2.5918,16 4.5386,9.09943 11.51216,15.13416 22.34375,19.33596 2.41637,0.9371 6.31222,1.2418 12.16406,0.9531 14.50052,-0.7155 24.9934,-7.0138 30.86719,-18.52734 l 2.06445,-4.04492 168.72851,-0.0234 c 98.0382,-0.0139 170.3784,-0.40742 172.6641,-0.9375 3.4579,-0.80192 13.8965,-10.87076 86.2656,-83.22461 65.049,-65.03526 82.5368,-83.04914 83.3105,-85.81445 1.3228,-4.72754 1.3228,-162.27246 0,-167 -1.424,-5.0895 -163.8642,-167.52401 -169.0039,-168.99805 -2.1258,-0.60966 -23.2578,-1.00195 -53.9902,-1.00195 h -50.498 L 1170.7597,459.26 1151,439.51781 1170.7402,419.76 l 19.7402,-19.75976 h 113.0508 113.0489 l 2.9589,5.125 c 3.7151,6.43193 11.7452,13.08043 19.2168,15.9121 4.8348,1.83233 7.0892,2.09309 14.2442,1.64649 10.5819,-0.6605 16.8735,-3.22029 23.334,-9.49219 7.3759,-7.16056 10.8424,-14.81556 11.4082,-25.18945 0.3835,-7.03134 0.094,-9.48329 -1.6817,-14.17578 -5.8579,-15.48229 -20.0845,-24.63852 -35.2636,-24.39844 z m -1.086,26.6543 c 0.648,-0.005 1.3963,0.0703 2.3281,0.19531 6.0673,0.81379 8.961,3.94866 8.961,9.70898 0,3.77685 -0.5211,5.13829 -2.8047,7.32618 -2.1985,2.10629 -3.7824,2.6875 -7.3262,2.6875 -5.7678,0 -8.8971,-3.0032 -9.5722,-9.1875 -0.4269,-3.90969 -0.1403,-4.63006 3.0585,-7.70313 2.3727,-2.27945 3.4115,-3.01348 5.3555,-3.02734 z M 918.34177,961.98461 c 5.29033,-0.0208 10.65821,4.11383 10.65821,10.11133 0,2.85021 -2.68222,7.66382 -4.94532,8.875 -1.05815,0.5663 -3.66947,1.0293 -5.80273,1.0293 -8.47966 -12.62764,-10.86672 -6.56445,-17.19532 1.86089,-1.94235 4.2496,-2.81084 6.65429,-2.82031 z" />
        <path id="S2-2"
            d="m 2783.1133,244.00024 c -8.8123,0 -11.8883,0.40102 -15.7793,2.05664 -5.6005,2.38303 -14.621,10.76306 -17.4317,16.19336 l -1.9414,3.75 -143.2305,0.0215 c -137.9675,0.0212 -143.3755,0.0911 -147.2285,1.89844 -4.961,2.32701 -111.8998,109.20869 -113.455,113.39453 -1.441,3.87461 -1.4397,112.50132 0,116.37109 1.089,2.927 47.8061,50.57437 56.2929,57.41406 l 4.8399,3.9004 h 52.6582 52.6582 l 76.2519,76.24804 76.252,76.2461 v 21 20.99804 l -49.2461,49.25391 -49.2461,49.25391 H 2424.375 2284.2422 l -1.3282,-3.25 c -1.935,-4.73193 -10.6727,-13.59448 -16.1289,-16.35938 -4.1674,-2.11178 -6.0701,-2.39062 -16.2851,-2.39062 -10.4552,0 -12.0677,0.24954 -16.7832,2.60156 -7.0152,3.499 -13.2709,9.6858 -16.8028,16.61914 -2.6741,5.24937 -2.914,6.5934 -2.914,16.2793 0,9.6523 0.2476,11.04618 2.8886,16.27734 1.5887,3.14681 5.3016,8.00481 8.252,10.79492 4.8531,4.58936 7.6897,6.10577 17.3594,9.2832 6.2737,2.06152 16.5081,0.6539 24.5019,-3.37109 5.2628,-2.64986 14.0038,-11.56766 15.9121,-16.23437 l 1.3282,-3.25 h 143.8144 c 97.632,0 144.7178,-0.33677 146.6289,-1.04688 2.8725,-1.06735 103.3197,-100.49635 110.4121,-109.29297 L 2689,763.82055 v -30.96094 c 0,-24.9829 -0.2771,-31.48113 -1.4356,-33.66016 -1.7371,-3.26732 -162.1457,-163.5281 -165.248,-165.0957 -1.5101,-0.76307 -18.3289,-1.10351 -54.4922,-1.10351 h -52.3086 L 2392.7578,510.25805 2370,487.51586 v -48.00391 -48.0039 l 49.248,-49.25391 49.2461,-49.2539 h 139.7324 139.7344 l 2.0254,3.97265 c 6.3891,12.52359 22.1884,21.24223 35.5156,19.59961 27.0455,-3.33344 41.639,-29.86043 29.7481,-54.07226 -3.3273,-6.77497 -8.6063,-12.09378 -15.4707,-15.5879 -5.2858,-2.69062 -6.5538,-2.9121 -16.666,-2.9121 z m -0.8243,26 c 4.9398,0 7.3032,1.31025 9.2891,5.15039 2.1949,4.24452 1.1391,9.06751 -2.6895,12.28906 -4.1377,3.4816 -8.7732,3.40549 -12.6425,-0.20899 -3.811,-3.56004 -4.6717,-6.41272 -3.2422,-10.74414 1.4601,-4.42425 4.4138,-6.48632 9.2851,-6.48632 z m -532.1875,585 c 5.1005,0 9.907,5.13228 9.877,10.54687 -0.024,4.18537 -2.0163,7.47148 -5.6621,9.33594 -6.8067,3.48102 -14.1993,-1.66265 -14.2813,-9.9375 -0.049,-4.90094 5.0576,-9.94531 10.0664,-9.94531 z" />
        <path id="U-2"
            d="m 2037,136.61938 c -13.1188,0.14009 -23.1487,5.29054 -30.0274,15.41992 -12.43,18.30399 -7.1749,42.25996 11.6309,53.01953 l 5.3965,3.08789 v 299.17383 299.17187 l -49.2461,49.25391 -49.2461,49.25391 h -75 -75 L 1726.7539,856.25414 1678,807.50805 1677.955,596.00414 c -0.035,-162.71426 -0.3231,-212.13724 -1.25,-214.24609 -1.1324,-2.57614 -8.8749,-10.60685 -62.9082,-65.25781 l -21.752,-22 1.5352,-6.5 c 3.8571,-16.32823 -4.4354,-34.21701 -19.0801,-41.15625 -5.4906,-2.60166 -6.9579,-2.84303 -17.2891,-2.84375 -13.3313,-9.3e-4 -16.6229,1.22774 -25.0508,9.35156 -8.0586,7.76792 -10.1601,13.31057 -10.1601,26.80078 0,10.05053 0.227,11.35474 2.9062,16.66211 5.266,10.43186 14.966,17.22934 27.6719,19.39062 4.8965,0.83291 7.5083,0.7084 13.4395,-0.64062 l 7.3632,-1.67578 38.8086,38.80078 38.8106,38.80078 v 211.68945 c 0,144.87315 0.3311,212.5793 1.0469,214.50586 1.0674,2.87255 100.4963,103.31967 109.2929,110.41211 l 4.8399,3.90235 h 83.9765 c 59.2799,0 84.6183,-0.32408 86.1602,-1.10352 3.1047,-1.56946 110.5137,-108.83475 112.248,-112.09766 1.2379,-2.32909 1.4356,-44.49072 1.4356,-306.67578 V 208.14672 l 5.3965,-3.08789 c 6.4451,-3.68752 11.6133,-9.17224 15.0683,-15.99024 2.2306,-4.4019 2.5352,-6.25132 2.5352,-15.41015 0,-8.92278 -0.3556,-11.21506 -2.4942,-16.05078 -3.5972,-8.13393 -9.1675,-13.68699 -17.7402,-17.6875 -6.555,-3.05897 -8.0971,-3.38268 -15.7656,-3.30078 z m -0.094,26.88086 c 6.8792,0 10.0938,3.02047 10.0938,9.48632 0,3.77685 -0.5211,5.13829 -2.8047,7.32618 -4.0362,3.86692 -10.7425,3.81299 -14.5078,-0.11719 -3.5659,-3.72198 -3.6344,-9.44758 -0.1641,-13.69531 2.1213,-2.5966 3.1136,-3 7.3828,-3 z m -479.2754,106.5 c 5.7966,0 9.2997,3.06503 10.0703,8.81054 0.5229,3.89797 0.2612,4.63326 -2.7578,7.74805 -2.6729,2.75781 -4.107,3.44141 -7.2168,3.44141 -8.6988,0 -13.1335,-10.83403 -7.039,-17.19532 2.1201,-2.21295 3.5844,-2.80468 6.9433,-2.80468 z" />
        <path id="S2-1"
            d="m 2783.1777,136.83227 c -5.5707,-0.0748 -11.2213,0.6926 -15.2949,2.32812 -6.5024,2.61057 -14.1861,9.65908 -17.4297,15.98633 l -2.3809,4.64648 -172.0351,0.35352 -172.0332,0.35352 -83.502,83.49804 L 2237,327.49633 v 112.00391 112.00585 l 57.0039,56.99805 57.0019,56.9961 79.8594,0.35156 79.8574,0.35156 19.8789,19.89844 19.8789,19.89844 -19.9804,20 -19.9805,20 H 2397.832 2285.1445 l -3.6113,-5.94727 c -4.7888,-7.88312 -11.9765,-13.50381 -20.5156,-16.04688 -8.4812,-2.52578 -13.8104,-2.51652 -21.9766,0.043 -16.6713,5.22524 -27.2601,20.92458 -25.668,38.05469 1.3858,14.91044 9.6218,25.73012 24.2715,31.88672 6.9751,2.93137 19.9027,2.22312 28.3164,-1.55273 6.481,-2.90846 13.8601,-9.89697 16.668,-15.78516 l 1.6465,-3.45117 117.6113,-0.37891 c 107.1515,-0.34488 117.8801,-0.52648 120.6133,-2.03516 1.65,-0.91078 15.8094,-14.49801 31.4648,-30.19335 l 28.4649,-28.53516 0.033,-6.02149 0.037,-6.01953 -29,-29.06836 c -17.0564,-17.0967 -30.3898,-29.66267 -32.3731,-30.50976 -2.8391,-1.21259 -15.7219,-1.43945 -81.5039,-1.43945 h -78.1308 L 2312.2461,589.74633 2263,540.49242 l 0.035,-100.49609 0.035,-100.49609 75.7148,-76.29493 75.7149,-76.29492 166.6738,0.0449 166.6719,0.0449 3.5879,5.75 c 10.0127,16.047 30.1122,21.65892 47.7402,13.33007 10.6743,-5.04335 17.2745,-14.03196 19.7383,-26.88086 2.9889,-15.58781 -6.0733,-32.76292 -20.9121,-39.63281 -3.76,-1.74074 -9.2515,-2.65955 -14.8223,-2.73437 z m -0.7383,26.16797 c 4.4639,0 9.287,4.0244 10.1153,8.43945 0.7134,3.80286 -1.469,8.90911 -4.5,10.53125 -1.0582,0.5663 -3.6695,1.0293 -5.8028,1.0293 -5.4545,0 -9.707,-4.44455 -9.707,-10.14454 0,-5.23567 4.6387,-9.85546 9.8945,-9.85546 z m -532.4394,586 c 6.3896,0 10,3.65237 10,10.11718 0,3.63397 -0.5439,5.0293 -2.8047,7.19532 -2.1961,2.104 -3.7826,2.6875 -7.3125,2.6875 -6.2141,0 -9.8828,-3.71193 -9.8828,-10 0,-6.33938 3.6606,-10 10,-10 z" />
        <path id="BotRight"
            d="m 2895.6094,692.15649 c -7.765,0.21223 -9.3675,0.70272 -11.4649,1.65039 -8.6012,3.88637 -8.1287,0.12138 -8.1387,64.99218 -0.01,62.42939 -0.1447,60.8517 5.6934,64.79688 2.4955,1.68637 5.2282,1.9305 25.0508,2.24414 l 22.25,0.35351 v 123.17188 123.17383 l -22.084,22.7305 -22.082,22.7304 h -273.795 -273.7968 l -1.334,-3.25 c -2.0814,-5.07 -9.8048,-12.669 -16.1133,-15.8535 -5.2436,-2.6469 -6.6417,-2.8965 -16.2363,-2.8965 -12.4982,0 -18.0778,2.0544 -25.8887,9.5332 -11.481,10.993 -14.5488,28.6832 -7.4512,42.9668 4.002,8.0537 12.4274,15.1389 22.7266,19.1114 5.2177,2.0125 18.8072,0.9147 25.5391,-2.0625 6.8202,-3.0162 12.7127,-8.4033 16.5742,-15.1524 l 3.0879,-5.3965 h 278.1836 278.1816 l 29.5703,-29.75 c 16.2636,-16.3625 30.0987,-31.0084 30.7441,-32.5468 0.877,-2.0905 1.1739,-34.8638 1.1739,-129.75004 V 826.00024 h 20.539 c 23.155,0 26.2937,-0.75948 30.3594,-7.3379 2.0691,-3.34844 2.0977,-4.23982 2.0977,-59.78125 0,-54.12184 -0.081,-56.5086 -1.9512,-59.57617 -4.3366,-7.11226 -1.2945,-6.76897 -63,-7.13672 -26.7436,-0.15938 -40.6706,-0.22395 -48.4355,-0.0117 z m -593.0743,429.83201 c 4.8347,0.082 9.9082,3.3155 10.7559,7.75 0.6721,3.5161 -1.4067,8.5286 -4.4082,10.6309 -6.1989,4.3419 -15.7306,-0.5723 -15.8477,-8.1699 -0.047,-3.0798 2.533,-7.8977 4.9102,-9.17 1.3931,-0.7455 2.9783,-1.0683 4.5898,-1.041 z" />
        <path id="U-1"
            d="m 1605.2011,1.4338293 c -1.4851,0.7887122 -15.4118,14.1785447 -30.9492,29.7558597 -21.2817,21.336208 -28.4967,29.183684 -29.25,31.810547 -0.5829,2.032325 -0.9997,18.508347 -1.0097,39.494144 l -0.01,36.00586 -6.0664,3.9082 c -7.1385,4.59955 -12.0212,10.6081 -14.9844,18.43945 -3.0376,8.02799 -2.3672,20.35034 1.5313,28.16016 6.2311,12.48277 17.0875,19.73833 30.8652,20.62695 5.658,0.36493 9.5974,0.0813 12.8066,-0.92187 l 4.6348,-1.44727 92.1152,92.11914 92.1153,92.11914 v 210.50391 c 0,137.33288 0.3477,211.71761 1,213.99219 0.7501,2.61524 7.6846,10.19848 27.75,30.3457 14.7126,14.77252 28.5054,28.16208 30.6504,29.75586 l 3.9004,2.89844 h 29.916 c 19.8605,0 30.6495,-0.37165 32.0996,-1.10547 3.1115,-1.57458 58.5236,-56.8449 60.25,-60.09571 1.2363,-2.32798 1.4336,-44.54795 1.4336,-306.1875 V 208.12328 l 5.8945,-3.63867 c 11.3735,-7.02012 17.042,-17.37274 17.082,-31.19727 0.031,-10.63861 -2.4564,-17.46346 -8.957,-24.57617 -10.9676,-12.00031 -25.8878,-15.47341 -41.4512,-9.65039 -15.733,5.88648 -25.6054,24.36763 -22.0625,41.30078 2.2674,10.83681 7.5342,18.5265 16.459,24.03516 l 6.0352,3.72656 v 299.17969 299.18164 l -22.7422,22.75781 -22.7422,22.75782 h -21 -21 L 1806.7578,829.25805 1784,806.51586 V 594.69164 c 0,-152.48613 -0.309,-212.43542 -1.1035,-214.00781 -0.607,-1.20134 -43.8392,-44.9667 -96.0723,-97.25781 l -94.9707,-95.07618 1.6699,-6.42382 c 2.068,-7.95893 1.3591,-15.86395 -2.1328,-23.78907 -2.8956,-6.57174 -10.9199,-15.1707 -16.5098,-17.6914 l -3.8808,-1.75 V 105.6057 72.515861 l 22.7422,-22.757813 22.7422,-22.757812 h 633.5 633.5 L 2906.2422,49.742423 2929,72.484611 V 222.74242 373.00024 h -21.6328 c -20.2186,0 -21.8529,0.13614 -25.0235,2.0957 -6.5529,4.04993 -6.3437,1.92757 -6.3437,64.4043 0,62.47673 -0.2084,60.3541 6.3457,64.40429 3.3404,2.0645 4.2604,2.0958 60.2734,2.0918 55.289,-0.004 56.9739,-0.0598 60.1914,-2.02149 6.2518,-3.81158 6.1914,-3.16698 6.1914,-64.4746 0,-61.30762 0.06,-60.66303 -6.1914,-64.47461 -3.0517,-1.86054 -5.0073,-2.01849 -25.0586,-2.02149 l -21.75,-0.004 V 219.06469 c 0,-104.77638 -0.3341,-154.833893 -1.0468,-156.750001 -1.1889,-3.196459 -56.0109,-58.6804929 -60.1543,-60.8808597 -4.0805,-2.16692372 -1285.5192,-2.16692372 -1289.5997,0 z M 1557.6328,162.86156 c 2.4747,0.13534 5.0686,1.26701 7.3105,3.58008 2.9857,3.08045 3.2764,3.87706 2.7774,7.59766 -0.3101,2.31187 -1.5577,5.22283 -2.8125,6.55859 -1.7532,1.86616 -3.2904,2.40235 -6.8946,2.40235 -6.353,0 -10.0136,-3.65511 -10.0136,-10 0,-6.05882 3.9498,-9.85914 8.5801,-10.13672 0.3472,-0.0208 0.6992,-0.0213 1.0527,-0.002 z m 372.8672,0.13868 c 4.0048,0 8.9842,3.80766 9.9355,7.59765 0.8999,3.5855 -1.0476,8.91782 -3.9511,10.82031 -3.1713,2.07789 -9.4215,1.97918 -12.1836,-0.1914 -2.8677,-2.25349 -4.5416,-6.85824 -3.7696,-10.37305 0.8626,-3.92727 5.8467,-7.85351 9.9688,-7.85351 z" />
    </g>
</svg>