<?xml version="1.0" encoding="UTF-8" ?>
<svg version="1.1" width="64" height="64" xmlns="http://www.w3.org/2000/svg" shape-rendering="crispEdges">
<rect x="24" y="0" width="3" height="3" fill="#521053" />
<rect x="38" y="0" width="3" height="3" fill="#521053" />
<rect x="21" y="3" width="3" height="3" fill="#521053" />
<rect x="24" y="3" width="3" height="9" fill="#3B0C3C" />
<rect x="38" y="3" width="3" height="9" fill="#3B0C3C" />
<rect x="41" y="3" width="3" height="3" fill="#521053" />
<rect x="21" y="6" width="3" height="6" fill="#3B0C3C" />
<rect x="33" y="6" width="2" height="9" fill="#FBF7F4" />
<rect x="41" y="6" width="3" height="9" fill="#3B0C3C" />
<rect x="18" y="9" width="3" height="3" fill="#521053" />
<rect x="30" y="9" width="3" height="3" fill="#FBF7F4" />
<rect x="44" y="9" width="3" height="3" fill="#521053" />
<rect x="18" y="12" width="3" height="3" fill="#FBF7F4" />
<rect x="21" y="12" width="6" height="3" fill="#FFFBF9" />
<rect x="27" y="12" width="3" height="3" fill="#FBF7F4" />
<rect x="30" y="12" width="3" height="5" fill="#FFFBF9" />
<rect x="35" y="12" width="3" height="3" fill="#FFFBF9" />
<rect x="38" y="12" width="3" height="3" fill="#FBF7F4" />
<rect x="44" y="12" width="3" height="5" fill="#3B0C3C" />
<rect x="18" y="15" width="3" height="2" fill="#3B0C3C" />
<rect x="21" y="15" width="3" height="2" fill="#FBF7F4" />
<rect x="24" y="15" width="6" height="2" fill="#FFFBF9" />
<rect x="33" y="15" width="2" height="5" fill="#FFFBF9" />
<rect x="35" y="15" width="3" height="2" fill="#FBF7F4" />
<rect x="38" y="15" width="6" height="2" fill="#FFFBF9" />
<rect x="18" y="17" width="3" height="3" fill="#FBF7F4" />
<rect x="21" y="17" width="3" height="6" fill="#FFFBF9" />
<rect x="24" y="17" width="3" height="6" fill="#FBF7F4" />
<rect x="27" y="17" width="3" height="6" fill="#FFFBF9" />
<rect x="30" y="17" width="3" height="3" fill="#FBF7F4" />
<rect x="35" y="17" width="6" height="6" fill="#FFFBF9" />
<rect x="41" y="17" width="6" height="3" fill="#FBF7F4" />
<rect x="15" y="20" width="3" height="3" fill="#FBF7F4" />
<rect x="18" y="20" width="3" height="6" fill="#FFFBF9" />
<rect x="30" y="20" width="3" height="6" fill="#FFFBF9" />
<rect x="33" y="20" width="2" height="15" fill="#F6D1D0" />
<rect x="41" y="20" width="3" height="9" fill="#FFFBF9" />
<rect x="44" y="20" width="3" height="6" fill="#FBF7F4" />
<rect x="21" y="23" width="3" height="3" fill="#FBF7F4" />
<rect x="24" y="23" width="3" height="3" fill="#521053" />
<rect x="27" y="23" width="3" height="12" fill="#F6D1D0" />
<rect x="35" y="23" width="3" height="12" fill="#F6D1D0" />
<rect x="38" y="23" width="3" height="3" fill="#521053" />
<rect x="47" y="23" width="3" height="3" fill="#FBF7F4" />
<rect x="15" y="26" width="3" height="3" fill="#FBF7F4" />
<rect x="18" y="26" width="3" height="3" fill="#B74785" />
<rect x="21" y="26" width="3" height="6" fill="#F6D1D0" />
<rect x="24" y="26" width="3" height="3" fill="#B74785" />
<rect x="30" y="26" width="3" height="9" fill="#F6D1D0" />
<rect x="38" y="26" width="3" height="3" fill="#B74785" />
<rect x="44" y="26" width="3" height="3" fill="#B74785" />
<rect x="18" y="29" width="3" height="3" fill="#A6437A" />
<rect x="24" y="29" width="3" height="6" fill="#F6D1D0" />
<rect x="38" y="29" width="6" height="3" fill="#F6D1D0" />
<rect x="44" y="29" width="3" height="3" fill="#A6437A" />
<rect x="21" y="32" width="3" height="3" fill="#FFFFFF" />
<rect x="38" y="32" width="3" height="3" fill="#F6D1D0" />
<rect x="41" y="32" width="3" height="3" fill="#FFFFFF" />
<rect x="44" y="32" width="3" height="3" fill="#FBF7F4" />
<rect x="24" y="35" width="6" height="3" fill="#FFFFFF" />
<rect x="30" y="35" width="5" height="12" fill="#565583" />
<rect x="35" y="35" width="6" height="3" fill="#FFFFFF" />
<rect x="21" y="38" width="3" height="3" fill="#FBF7F4" />
<rect x="24" y="38" width="3" height="9" fill="#FFFFFF" />
<rect x="27" y="38" width="3" height="3" fill="#565583" />
<rect x="35" y="38" width="3" height="3" fill="#565583" />
<rect x="38" y="38" width="3" height="9" fill="#FFFFFF" />
<rect x="41" y="38" width="3" height="3" fill="#FBF7F4" />
<rect x="18" y="41" width="3" height="3" fill="#FBF7F4" />
<rect x="21" y="41" width="3" height="6" fill="#FFFFFF" />
<rect x="27" y="41" width="3" height="3" fill="#FFFFFF" />
<rect x="35" y="41" width="3" height="3" fill="#FFFFFF" />
<rect x="41" y="41" width="3" height="6" fill="#FFFFFF" />
<rect x="44" y="41" width="3" height="3" fill="#FBF7F4" />
<rect x="15" y="44" width="3" height="3" fill="#F6D1D0" />
<rect x="18" y="44" width="3" height="3" fill="#565583" />
<rect x="27" y="44" width="3" height="3" fill="#565583" />
<rect x="35" y="44" width="3" height="3" fill="#565583" />
<rect x="44" y="44" width="3" height="3" fill="#565583" />
<rect x="47" y="44" width="3" height="3" fill="#F6D1D0" />
<rect x="21" y="47" width="3" height="2" fill="#A6437A" />
<rect x="24" y="47" width="17" height="5" fill="#222034" />
<rect x="41" y="47" width="3" height="2" fill="#A6437A" />
<rect x="18" y="49" width="3" height="3" fill="#A6437A" />
<rect x="21" y="49" width="3" height="6" fill="#B74785" />
<rect x="41" y="49" width="3" height="6" fill="#B74785" />
<rect x="44" y="49" width="3" height="3" fill="#A6437A" />
<rect x="15" y="52" width="3" height="3" fill="#A6437A" />
<rect x="18" y="52" width="3" height="3" fill="#B74785" />
<rect x="24" y="52" width="6" height="3" fill="#222034" />
<rect x="30" y="52" width="5" height="6" fill="#B74785" />
<rect x="35" y="52" width="6" height="3" fill="#222034" />
<rect x="44" y="52" width="3" height="3" fill="#B74785" />
<rect x="47" y="52" width="3" height="3" fill="#A6437A" />
<rect x="18" y="55" width="6" height="3" fill="#A6437A" />
<rect x="24" y="55" width="6" height="3" fill="#F6D1D0" />
<rect x="35" y="55" width="6" height="3" fill="#F6D1D0" />
<rect x="41" y="55" width="6" height="3" fill="#A6437A" />
<rect x="24" y="58" width="6" height="3" fill="#FFFBF9" />
<rect x="30" y="58" width="5" height="3" fill="#A6437A" />
<rect x="35" y="58" width="6" height="3" fill="#FFFBF9" />
<rect x="24" y="61" width="6" height="3" fill="#B74785" />
<rect x="35" y="61" width="6" height="3" fill="#B74785" />
</svg>